<svg width="1440" height="1399" viewBox="0 0 1440 1399" fill="none" xmlns="http://www.w3.org/2000/svg">
<mask id="mask0_133_486" style="mask-type:alpha" maskUnits="userSpaceOnUse" x="-326" y="-42" width="1826" height="1373">
<path d="M762.16 432.828C762.16 580.088 664.796 699.465 544.69 699.465C424.584 699.465 -325.822 182.968 -325.822 35.708C-325.822 -111.552 752.366 91.1787 872.471 91.1787C992.577 91.1787 762.16 285.568 762.16 432.828Z" fill="url(#paint0_linear_133_486)"/>
<path d="M846.625 1063.85C846.625 1211.11 749.26 1330.49 629.155 1330.49C509.049 1330.49 -160.042 1296.17 -160.042 1148.91C-160.042 1001.65 -110.584 652.821 9.52185 652.821C129.627 652.821 846.625 916.593 846.625 1063.85Z" fill="url(#paint1_radial_133_486)"/>
<path d="M1018.44 445.898C1288.92 677.365 1165.08 559.82 1421.46 527.316C1460.79 530.774 1528.84 524.239 1486.44 470.436C1433.43 403.182 1458.37 349.366 1390.9 277.076C1323.43 204.786 1285.72 128.219 1184.54 12.6239C1083.35 -102.971 1063.64 2.75504 935.684 5.87344C807.726 8.99184 864.917 18.8188 667.746 221.36C470.575 423.902 747.967 214.431 1018.44 445.898Z" fill="#D9D9D9"/>
<path d="M787.375 893.614C353.695 944.672 562.971 928.913 385.212 1143.23C350.123 1170.55 300.998 1226.06 385.212 1229.59C490.48 1234 520.107 1288.21 641.764 1285.06C763.421 1281.91 864.908 1303.97 1054.01 1303.97C1243.12 1303.97 1161.17 1219.5 1262.03 1121.17C1362.88 1022.83 1307.41 1059.4 1279.68 777.629C1251.94 495.864 1221.05 842.555 787.375 893.614Z" fill="#D9D9D9"/>
</mask>
<g mask="url(#mask0_133_486)">
<line x1="-28" y1="738.37" x2="1442" y2="738.37" stroke="white" stroke-opacity="0.09" stroke-width="1.2607"/>
<line x1="-28" y1="1061.37" x2="1442" y2="1061.37" stroke="white" stroke-opacity="0.09" stroke-width="1.2607"/>
<line x1="-28" y1="415.37" x2="1442" y2="415.37" stroke="white" stroke-opacity="0.09" stroke-width="1.2607"/>
<line x1="-28" y1="93.3697" x2="1442" y2="93.3697" stroke="white" stroke-opacity="0.09" stroke-width="1.2607"/>
<line x1="-28" y1="1222.37" x2="1442" y2="1222.37" stroke="white" stroke-opacity="0.09" stroke-width="1.2607"/>
<line x1="-28" y1="577.37" x2="1442" y2="577.37" stroke="white" stroke-opacity="0.09" stroke-width="1.2607"/>
<line x1="-28" y1="900.37" x2="1442" y2="900.37" stroke="white" stroke-opacity="0.09" stroke-width="1.2607"/>
<line x1="-28" y1="254.37" x2="1442" y2="254.37" stroke="white" stroke-opacity="0.09" stroke-width="1.2607"/>
<line x1="-28" y1="1303.37" x2="1442" y2="1303.37" stroke="white" stroke-opacity="0.09" stroke-width="1.2607"/>
<line x1="-28" y1="657.37" x2="1442" y2="657.37" stroke="white" stroke-opacity="0.09" stroke-width="1.2607"/>
<line x1="-28" y1="980.37" x2="1442" y2="980.37" stroke="white" stroke-opacity="0.09" stroke-width="1.2607"/>
<line x1="-28" y1="335.37" x2="1442" y2="335.37" stroke="white" stroke-opacity="0.09" stroke-width="1.2607"/>
<line x1="-28" y1="12.3697" x2="1442" y2="12.3697" stroke="white" stroke-opacity="0.09" stroke-width="1.2607"/>
<line x1="-28" y1="1142.37" x2="1442" y2="1142.37" stroke="white" stroke-opacity="0.09" stroke-width="1.2607"/>
<line x1="-28" y1="496.37" x2="1442" y2="496.37" stroke="white" stroke-opacity="0.09" stroke-width="1.2607"/>
<line x1="-28" y1="819.37" x2="1442" y2="819.37" stroke="white" stroke-opacity="0.09" stroke-width="1.2607"/>
<line x1="-28" y1="173.37" x2="1442" y2="173.37" stroke="white" stroke-opacity="0.09" stroke-width="1.2607"/>
<line x1="18.98" y1="64.7049" x2="18.9799" y2="1232.11" stroke="white" stroke-opacity="0.09" stroke-width="1.2607"/>
<line x1="664.461" y1="64.7049" x2="664.461" y2="1232.11" stroke="white" stroke-opacity="0.09" stroke-width="1.2607"/>
<line x1="341.72" y1="64.7047" x2="341.72" y2="1232.11" stroke="white" stroke-opacity="0.09" stroke-width="1.2607"/>
<line x1="987.197" y1="64.7049" x2="987.197" y2="1232.11" stroke="white" stroke-opacity="0.09" stroke-width="1.2607"/>
<line x1="1309.94" y1="64.7049" x2="1309.94" y2="1232.11" stroke="white" stroke-opacity="0.09" stroke-width="1.2607"/>
<line x1="180.35" y1="64.7049" x2="180.35" y2="1232.11" stroke="white" stroke-opacity="0.09" stroke-width="1.2607"/>
<line x1="825.827" y1="64.7049" x2="825.827" y2="1232.11" stroke="white" stroke-opacity="0.09" stroke-width="1.2607"/>
<line x1="503.09" y1="64.7049" x2="503.09" y2="1232.11" stroke="white" stroke-opacity="0.09" stroke-width="1.2607"/>
<line x1="1148.57" y1="64.7047" x2="1148.57" y2="1232.11" stroke="white" stroke-opacity="0.09" stroke-width="1.2607"/>
<line x1="99.6675" y1="64.7049" x2="99.6674" y2="1232.11" stroke="white" stroke-opacity="0.09" stroke-width="1.2607"/>
<line x1="745.144" y1="64.7047" x2="745.143" y2="1232.11" stroke="white" stroke-opacity="0.09" stroke-width="1.2607"/>
<line x1="422.403" y1="64.7049" x2="422.403" y2="1232.11" stroke="white" stroke-opacity="0.09" stroke-width="1.2607"/>
<line x1="1067.88" y1="64.7049" x2="1067.88" y2="1232.11" stroke="white" stroke-opacity="0.09" stroke-width="1.2607"/>
<line x1="1390.62" y1="64.7049" x2="1390.62" y2="1232.11" stroke="white" stroke-opacity="0.09" stroke-width="1.2607"/>
<line x1="261.038" y1="64.7049" x2="261.038" y2="1232.11" stroke="white" stroke-opacity="0.09" stroke-width="1.2607"/>
<line x1="906.514" y1="64.7049" x2="906.514" y2="1232.11" stroke="white" stroke-opacity="0.09" stroke-width="1.2607"/>
<line x1="583.773" y1="64.7049" x2="583.773" y2="1232.11" stroke="white" stroke-opacity="0.09" stroke-width="1.2607"/>
<line x1="1229.25" y1="64.7049" x2="1229.25" y2="1232.11" stroke="white" stroke-opacity="0.09" stroke-width="1.2607"/>
<g opacity="0.7">
<rect x="825.885" y="899.859" width="80.2262" height="80.2262" fill="#24613D" fill-opacity="0.36"/>
<rect x="422.462" y="899.859" width="80.2262" height="80.2262" fill="#24613D" fill-opacity="0.25"/>
<rect x="1149.08" y="335.983" width="80.2262" height="79.0801" fill="#24613D" fill-opacity="0.11"/>
<rect x="502.688" y="255.757" width="80.2262" height="79.0801" fill="#0DA932" fill-opacity="0.31"/>
<rect x="1067.71" y="416.209" width="80.2262" height="79.0801" fill="#24613D" fill-opacity="0.11"/>
<rect x="421.316" y="335.983" width="80.2262" height="79.0801" fill="#0DA932" fill-opacity="0.31"/>
<rect x="1067.71" y="335.983" width="80.2262" height="79.0801" fill="#24613D" fill-opacity="0.11"/>
<rect x="421.316" y="255.757" width="80.2262" height="79.0801" fill="#0DA932" fill-opacity="0.31"/>
<rect x="342.236" y="899.859" width="80.2262" height="80.2262" fill="#24613D" fill-opacity="0.25"/>
<rect x="342.236" y="980.085" width="80.2262" height="81.3723" fill="#24613D" fill-opacity="0.25"/>
<rect x="180.637" y="819.633" width="80.2262" height="80.2262" fill="#24613D" fill-opacity="0.25"/>
<rect opacity="0.8" x="987" y="173" width="81" height="82" fill="url(#paint2_linear_133_486)" fill-opacity="0.61"/>
<rect opacity="0.5" x="907.258" y="82.6976" width="80.2262" height="80.2262" fill="#0FAE27" fill-opacity="0.5"/>
<rect x="906.381" y="173.238" width="80.2262" height="81.3723" fill="url(#paint3_linear_133_486)" fill-opacity="0.61"/>
<rect x="180.637" y="253.465" width="81.3723" height="82.5184" fill="#0D992F" fill-opacity="0.24"/>
<rect x="99.2651" y="173.239" width="81.3723" height="80.2262" fill="#0D992F" fill-opacity="0.24"/>
<rect x="19.0391" y="174.385" width="81.3723" height="80.2262" fill="#0D992F" fill-opacity="0.24"/>
<rect x="99.2651" y="253.465" width="81.3723" height="82.5184" fill="#0D992F" fill-opacity="0.24"/>
<rect x="422.462" y="93.0123" width="81.3723" height="80.2262" fill="#0B902B"/>
<rect x="180.637" y="415.063" width="80.2262" height="81.3723" fill="#0D992F" fill-opacity="0.24"/>
<rect x="1149.08" y="819.633" width="80.2262" height="80.2262" fill="#1B8B3B" fill-opacity="0.26"/>
<rect x="1229.31" y="899.859" width="80.2262" height="80.2262" fill="#1B8B3B" fill-opacity="0.26"/>
</g>
</g>
<defs>
<linearGradient id="paint0_linear_133_486" x1="193.586" y1="109.459" x2="648.067" y2="351.513" gradientUnits="userSpaceOnUse">
<stop stop-color="white"/>
<stop offset="1" stop-color="white" stop-opacity="0"/>
</linearGradient>
<radialGradient id="paint1_radial_133_486" cx="0" cy="0" r="1" gradientUnits="userSpaceOnUse" gradientTransform="translate(158.914 1070.11) rotate(-29.3932) scale(777.019 1335.47)">
<stop stop-color="white"/>
<stop offset="1" stop-color="white" stop-opacity="0"/>
</radialGradient>
<linearGradient id="paint2_linear_133_486" x1="1027.5" y1="173" x2="1027.5" y2="255" gradientUnits="userSpaceOnUse">
<stop stop-color="#0FAE27"/>
<stop offset="1" stop-color="#22742F"/>
</linearGradient>
<linearGradient id="paint3_linear_133_486" x1="946.494" y1="173.238" x2="946.494" y2="254.611" gradientUnits="userSpaceOnUse">
<stop stop-color="#0FAE27"/>
<stop offset="1" stop-color="#22742F"/>
</linearGradient>
</defs>
</svg>
